<?xml version="1.0" standalone="no"?>
<!DOCTYPE svg PUBLIC "-//W3C//DTD SVG 20010904//EN"
 "http://www.w3.org/TR/2001/REC-SVG-20010904/DTD/svg10.dtd">
<svg version="1.0" xmlns="http://www.w3.org/2000/svg"
 width="16.000000pt" height="16.000000pt" viewBox="0 0 16.000000 16.000000"
 preserveAspectRatio="xMidYMid meet">
<metadata>
Created by potrace 1.11, written by Peter Selinger 2001-2013
</metadata>
<g transform="translate(0.000000,16.000000) scale(0.002286,-0.002286)"
fill="#000000" stroke="none">
<path d="M4670 5100 l0 -390 625 0 625 0 -2 388 -3 387 -622 3 -623 2 0 -390z"/>
<path d="M2901 5100 c-160 -208 -291 -382 -291 -385 0 -3 407 -5 905 -5 l905
0 0 385 0 385 -614 0 -615 0 -290 -380z"/>
<path d="M735 5318 c-72 -16 -115 -77 -115 -165 0 -64 26 -113 75 -141 33 -19
50 -22 98 -18 63 5 88 20 113 69 27 52 -9 65 -44 17 -19 -25 -29 -30 -66 -30
-26 0 -48 6 -56 15 -35 42 -28 175 10 195 43 23 94 10 115 -30 11 -21 20 -27
35 -23 17 5 20 14 20 59 0 47 -3 54 -19 54 -11 0 -23 -5 -26 -10 -4 -6 -11 -7
-17 -4 -23 14 -84 20 -123 12z"/>
<path d="M1022 5220 c-70 -17 -100 -85 -37 -85 26 0 30 4 30 28 -1 23 3 27 27
27 25 0 48 -23 48 -49 0 -5 -24 -14 -52 -21 -29 -6 -63 -17 -75 -26 -28 -18
-31 -64 -5 -87 24 -22 90 -22 120 -1 21 15 25 15 41 0 35 -32 85 -13 97 37 8
34 -20 39 -31 5 -6 -16 -10 0 -14 55 -5 67 -10 82 -30 98 -13 10 -31 19 -41
19 -10 0 -24 2 -32 4 -7 2 -28 0 -46 -4z m68 -132 c0 -36 -15 -50 -45 -46 -41
4 -42 24 -3 48 42 25 48 25 48 -2z"/>
<path d="M1624 5220 c-47 -15 -67 -43 -72 -105 -4 -52 -3 -56 31 -90 29 -29
42 -35 78 -35 66 0 111 27 128 76 17 49 10 84 -27 124 -30 33 -86 45 -138 30z
m90 -77 c11 -40 -2 -91 -26 -107 -29 -18 -49 12 -50 72 0 62 7 74 40 70 20 -2
29 -11 36 -35z"/>
<path d="M1227 5213 c-13 -13 -7 -32 13 -38 17 -5 20 -15 20 -70 0 -55 -2 -63
-21 -68 -13 -4 -20 -12 -17 -24 3 -15 15 -19 71 -21 74 -3 95 12 63 47 -25 27
-20 78 9 107 21 21 29 23 40 14 17 -14 21 -120 5 -120 -5 0 -10 -11 -10 -25 0
-24 2 -25 70 -25 67 0 70 1 70 24 0 15 -7 26 -20 29 -18 5 -20 14 -20 76 0 64
-2 72 -25 87 -30 20 -88 14 -116 -12 -18 -16 -19 -16 -19 4 0 20 -5 22 -53 22
-30 0 -57 -3 -60 -7z"/>
<path d="M1810 5200 c0 -11 7 -23 15 -26 11 -5 15 -22 15 -69 0 -47 -4 -64
-15 -69 -8 -3 -15 -15 -15 -26 0 -18 6 -20 70 -20 68 0 70 1 70 25 0 14 -5 25
-11 25 -6 0 -9 20 -7 51 2 38 8 55 23 65 29 19 44 5 51 -49 5 -38 3 -51 -11
-67 -31 -35 -13 -50 60 -50 63 0 65 1 65 25 0 16 -6 25 -15 25 -11 0 -15 13
-15 54 0 58 -13 106 -33 118 -20 13 -72 9 -93 -7 -25 -19 -34 -19 -34 0 0 12
-13 15 -60 15 -54 0 -60 -2 -60 -20z"/>
<path d="M185 4418 c-3 -7 -4 -611 -3 -1343 l3 -1330 1314 -3 1314 -2 -82 50
c-314 190 -537 473 -652 823 -111 336 -100 697 31 1029 119 302 351 574 628
737 39 24 72 45 72 47 0 2 -590 4 -1310 4 -1039 0 -1312 -3 -1315 -12z m1605
-473 l0 -165 -580 0 -580 0 0 165 0 165 580 0 580 0 0 -165z"/>
<path d="M1360 3940 l0 -80 160 0 160 0 0 80 0 80 -160 0 -160 0 0 -80z"/>
<path d="M4220 4426 c0 -3 35 -26 78 -51 356 -217 614 -583 697 -989 32 -157
36 -400 10 -551 -56 -322 -204 -605 -436 -832 -96 -94 -148 -135 -267 -210
l-85 -53 1311 0 1312 0 0 1345 0 1345 -1310 0 c-720 0 -1310 -2 -1310 -4z"/>
<path d="M3405 4349 c-169 -13 -365 -72 -509 -153 -215 -120 -413 -329 -526
-555 -102 -205 -149 -482 -120 -708 35 -268 133 -488 308 -688 184 -211 424
-350 712 -412 117 -25 371 -25 490 0 518 110 916 516 1006 1027 19 110 22 322
5 421 -68 405 -318 748 -678 932 -217 110 -448 156 -688 136z m250 -614 c89
-19 214 -80 287 -142 190 -160 275 -411 223 -657 -40 -189 -179 -364 -356
-449 -117 -56 -177 -70 -299 -70 -113 1 -196 20 -300 71 -107 52 -241 186
-293 294 -148 306 -53 670 223 853 37 25 85 52 106 61 124 52 278 66 409 39z"/>
</g>
</svg>
