<?xml version="1.0" standalone="no"?>
<!DOCTYPE svg PUBLIC "-//W3C//DTD SVG 20010904//EN"
 "http://www.w3.org/TR/2001/REC-SVG-20010904/DTD/svg10.dtd">
<svg version="1.0" xmlns="http://www.w3.org/2000/svg"
 width="260.000000pt" height="260.000000pt" viewBox="0 0 260.000000 260.000000"
 preserveAspectRatio="xMidYMid meet">
<metadata>
Created by potrace 1.11, written by Peter Selinger 2001-2013
</metadata>
<g transform="translate(0.000000,260.000000) scale(0.100000,-0.100000)"
fill="#000000" stroke="none">
<path d="M1263 2575 c-35 -15 -73 -60 -73 -86 0 -12 -7 -19 -20 -19 -39 0
-175 -32 -255 -59 -103 -36 -192 -81 -283 -144 -72 -49 -74 -50 -105 -35 -97
44 -194 -49 -155 -150 l14 -37 -52 -75 c-99 -144 -171 -319 -195 -481 -8 -51
-17 -79 -25 -79 -31 0 -65 -26 -84 -64 -16 -34 -18 -48 -10 -78 12 -40 61 -88
91 -88 14 0 19 -7 19 -25 0 -45 48 -228 80 -305 38 -92 79 -165 136 -246 29
-42 40 -64 33 -71 -20 -20 -26 -77 -12 -111 15 -36 65 -72 101 -72 12 0 38 7
57 14 33 14 37 13 62 -8 78 -64 236 -147 353 -184 67 -21 194 -49 238 -51 6
-1 12 -11 12 -24 0 -26 42 -71 80 -85 29 -11 86 2 112 25 10 9 23 31 30 49 7
19 17 35 23 35 5 1 19 3 30 4 175 21 406 116 546 226 35 27 38 28 65 14 100
-52 209 50 160 151 l-16 34 44 59 c111 151 190 357 215 563 1 3 14 9 31 13 46
10 80 58 80 112 0 38 -5 50 -34 79 -19 19 -43 34 -55 34 -12 0 -21 3 -22 8
-21 192 -94 388 -204 548 -47 69 -53 81 -42 99 33 52 11 132 -43 160 -37 19
-89 19 -116 0 -20 -13 -26 -11 -75 26 -130 97 -337 184 -501 209 -73 12 -77
14 -83 41 -6 28 -55 78 -78 80 -7 0 -19 2 -28 4 -8 1 -29 -3 -46 -10z m88 -54
c16 -13 23 -29 23 -55 0 -33 2 -36 31 -37 16 0 39 -2 50 -4 11 -2 35 -7 54
-10 173 -32 347 -111 499 -228 49 -37 55 -39 64 -23 26 47 106 39 128 -14 9
-23 9 -34 -4 -58 -9 -17 -21 -32 -28 -34 -9 -3 1 -23 28 -59 118 -154 205
-349 228 -509 19 -136 15 -127 46 -122 43 6 84 -38 76 -81 -9 -43 -28 -60 -70
-61 -34 -1 -36 -2 -41 -46 -10 -81 -56 -260 -83 -323 -34 -80 -85 -168 -137
-237 -60 -81 -60 -79 -36 -101 48 -45 17 -122 -50 -122 -21 0 -38 7 -50 22
-21 25 -18 26 -103 -38 -33 -25 -97 -65 -142 -88 -78 -41 -244 -107 -244 -98
0 2 -12 0 -26 -5 -14 -6 -49 -13 -77 -16 -29 -4 -59 -8 -67 -10 -8 -1 -23 -3
-32 -3 -13 -1 -17 -8 -14 -23 7 -43 -30 -87 -72 -88 -33 0 -72 43 -72 80 0 16
-3 30 -7 31 -93 6 -247 42 -342 80 -93 37 -157 74 -257 145 l-77 55 -21 -20
c-39 -36 -95 -29 -114 15 -17 37 -15 52 13 80 l25 24 -58 78 c-125 169 -215
406 -221 583 -1 22 -5 25 -37 25 -43 0 -74 31 -74 74 0 35 41 70 80 70 26 0
28 3 35 58 23 198 100 386 222 550 l55 74 -20 21 c-29 33 -33 55 -17 86 24 48
68 54 111 17 l28 -23 69 53 c84 64 215 132 320 167 81 28 220 57 268 57 26 0
28 2 23 29 -5 23 -1 35 19 55 31 31 66 33 98 7z"/>
<path d="M1189 2265 c-2 -2 -29 -6 -59 -10 -108 -13 -281 -81 -380 -148 -385
-265 -534 -745 -363 -1173 117 -296 383 -521 696 -589 123 -26 315 -24 432 5
66 17 68 18 110 33 256 92 474 308 571 563 48 127 64 225 60 369 -4 150 -8
171 -43 280 -111 345 -395 592 -757 659 -69 12 -258 21 -267 11z m346 -80
c321 -95 554 -328 646 -647 26 -91 37 -296 20 -391 -32 -183 -112 -343 -240
-479 -177 -189 -401 -289 -651 -292 -133 -1 -181 5 -282 35 -145 43 -284 126
-393 236 -429 431 -330 1149 199 1452 152 87 294 121 486 116 100 -2 143 -8
215 -30z"/>
<path d="M917 1862 c-14 -3 -17 -12 -15 -40 l3 -37 173 2 c94 2 172 -1 173 -5
1 -4 2 -164 3 -357 2 -387 3 -381 -62 -425 -28 -18 -51 -24 -92 -24 -102 -1
-165 61 -176 173 -6 53 -10 62 -30 67 -43 11 -59 1 -59 -36 2 -75 16 -138 43
-181 63 -99 215 -135 330 -78 l52 26 0 -111 0 -111 43 0 42 0 1 315 c1 173 2
318 3 321 1 4 78 6 171 6 94 0 173 3 177 6 10 11 9 88 -2 95 -5 3 -86 6 -179
7 l-170 0 -1 145 c-1 80 1 151 3 158 3 9 54 12 208 12 l204 0 0 41 0 40 -412
-2 c-227 -2 -421 -5 -431 -7z"/>
</g>
</svg>
