<svg id="Layer_1" xmlns="http://www.w3.org/2000/svg" width="30" height="30" viewBox="0 0 30 30"><style>.st0{fill:#bca2a2}</style><title>facebook</title><path class="st0" d="M15.7 28.4h-5.5c-.4 0-.6-.2-.6-.6V15.9H7.1c-.4 0-.6-.2-.6-.6v-4.8c0-.4.2-.6.6-.6h2.5V6.8c0-1.7.5-3.2 1.5-4.2 1.2-1.1 2.8-1.7 5-1.7h4.5c.4 0 .6.2.6.6v4.8c0 .4-.2.7-.6.7h-3.4c-.3 0-.9.4-.9.6V10h4.1c.2 0 .3.1.4.2.1.1.2.3.2.5-.2 2.4-.6 4.8-.6 4.8-.1.3-.3.5-.6.5h-3.6v11.9c.1.3-.1.5-.5.5zm-4.9-1.2h4.3V15.3c0-.4.2-.6.6-.6h3.7c.1-.7.3-2.1.4-3.6h-4.1c-.4 0-.6-.2-.6-.6v-3c0-.8 1.3-1.7 2.1-1.7H20V2.2h-3.9c-1.8 0-3.2.4-4.1 1.3-.9.8-1.2 1.9-1.2 3.3v3.7c0 .4-.2.6-.6.6H7.7v3.6h2.4c.4 0 .6.2.6.6.1 0 .1 11.9.1 11.9z"/></svg>