<svg id="Layer_1" xmlns="http://www.w3.org/2000/svg" xmlns:xlink="http://www.w3.org/1999/xlink" width="30" height="30" viewBox="0 0 30 30"><style>.st0{clip-path:url(#SVGID_1_);fill:#888}</style><title>Page 1</title><defs><path id="SVGID_3_" d="M1.2 1.2h27.7v27.7H1.2z"/></defs><clipPath id="SVGID_1_"><use xlink:href="#SVGID_3_" overflow="visible"/></clipPath><path class="st0" d="M15 3.7c3.7 0 4.1 0 5.6.1 1.3.1 2.1.3 2.6.5.6.3 1.1.6 1.6 1 .5.5.8.9 1 1.6.2.5.4 1.2.5 2.6.1 1.5.1 1.9.1 5.6 0 3.7 0 4.1-.1 5.6-.1 1.3-.3 2.1-.5 2.6-.3.6-.6 1.1-1 1.6-.5.5-.9.8-1.6 1-.5.2-1.2.4-2.6.5-1.5.1-1.9.1-5.6.1-3.7 0-4.1 0-5.6-.1-1.3-.1-2.1-.3-2.6-.5-.6-.3-1.1-.6-1.6-1-.5-.5-.8-.9-1-1.6-.2-.5-.4-1.2-.5-2.6-.1-1.5-.1-1.9-.1-5.6 0-3.7 0-4.1.1-5.6.1-1.4.3-2.2.5-2.7.3-.6.6-1.1 1-1.6.5-.5.9-.8 1.6-1 .5-.2 1.3-.4 2.6-.5 1.5 0 1.9 0 5.6 0m0-2.5c-3.8 0-4.2 0-5.7.1-1.5 0-2.5.3-3.4.6-.9.3-1.6.8-2.4 1.6-.8.8-1.3 1.5-1.6 2.4-.3.9-.6 1.9-.7 3.4-.1 1.5-.1 1.9-.1 5.7 0 3.8 0 4.2.1 5.7s.3 2.5.6 3.4c.4.9.8 1.7 1.6 2.5s1.5 1.2 2.5 1.6c.9.3 1.9.6 3.4.6 1.5.1 1.9.1 5.7.1 3.8 0 4.2 0 5.7-.1s2.5-.3 3.4-.6c.9-.4 1.7-.8 2.5-1.6s1.2-1.5 1.6-2.5c.3-.9.6-1.9.6-3.4.1-1.5.1-1.9.1-5.7 0-3.8 0-4.2-.1-5.7s-.3-2.5-.6-3.4c-.4-.9-.8-1.7-1.6-2.5s-1.5-1.2-2.5-1.6c-.9-.3-1.9-.6-3.4-.6s-1.9 0-5.7 0"/><path class="st0" d="M15 7.9c-3.9 0-7.1 3.2-7.1 7.1 0 3.9 3.2 7.1 7.1 7.1 3.9 0 7.1-3.2 7.1-7.1 0-3.9-3.2-7.1-7.1-7.1m0 11.7c-2.5 0-4.6-2.1-4.6-4.6 0-2.5 2.1-4.6 4.6-4.6 2.5 0 4.6 2.1 4.6 4.6 0 2.5-2.1 4.6-4.6 4.6m9-12c0 .9-.7 1.7-1.7 1.7-.9 0-1.7-.7-1.7-1.7 0-.9.7-1.7 1.7-1.7 1 .1 1.7.8 1.7 1.7"/></svg>