<svg id="Layer_1" xmlns="http://www.w3.org/2000/svg" width="30" height="30" viewBox="0 0 30 30"><style>.st0{fill:#bca2a2}</style><title>Page 1</title><path class="st0" d="M6.9 3.6C5 3.6 3.5 5.2 3.5 7v16c0 1.9 1.5 3.4 3.4 3.4h16c1.9 0 3.4-1.5 3.4-3.4V7c0-1.9-1.5-3.4-3.4-3.4h-16zm16 24h-16c-2.5 0-4.5-2-4.5-4.5V7c0-2.5 2-4.5 4.5-4.5h16c2.5 0 4.5 2 4.5 4.5v16c0 2.5-2 4.6-4.5 4.6z"/><path class="st0" d="M14.7 12.1c-2 0-3.6 1.6-3.6 3.6s1.6 3.6 3.6 3.6 3.6-1.6 3.6-3.6-1.6-3.6-3.6-3.6m0 8.4c-2.6 0-4.7-2.1-4.7-4.7s2.1-4.7 4.7-4.7 4.7 2.1 4.7 4.7-2 4.7-4.7 4.7"/><path class="st0" d="M14.7 9.6c-3.4 0-6.1 2.8-6.1 6.1s2.8 6.2 6.1 6.2 6.1-2.8 6.1-6.1c0-3.4-2.7-6.2-6.1-6.2m0 13.4c-4 0-7.2-3.3-7.2-7.2 0-4 3.3-7.2 7.2-7.2 4 0 7.2 3.3 7.2 7.2.1 3.9-3.2 7.2-7.2 7.2m7-17.2c-.3 0-.6.2-.6.6V8c0 .3.2.6.6.6h1.6c.3 0 .6-.2.6-.6V6.3c0-.3-.2-.6-.6-.6h-1.6v.1zm1.5 3.8h-1.6c-1 0-1.7-.7-1.7-1.7V6.3c0-1 .7-1.7 1.7-1.7h1.6c1 0 1.7.7 1.7 1.7v1.6c0 .9-.8 1.7-1.7 1.7z"/><path class="st0" d="M22.1 25.1H7.4c-1.5 0-2.8-1.2-2.8-2.8 0 0 0 0 0-.1V12.1c0-.3.2-.6.6-.6h2.3c.3 0 .6.2.6.6 0 .3-.2.6-.6.6H5.7v9.6c0 1 .7 1.7 1.7 1.7h14.7c1 0 1.7-.7 1.7-1.7v-9.6h-1.7c-.3 0-.6-.2-.6-.6 0-.3.2-.6.6-.6h2.3c.3 0 .6.2.6.6v10.2c-.1 1.5-1.3 2.8-2.9 2.8"/></svg>