<svg width="47" height="47" viewBox="0 0 47 47" xmlns="http://www.w3.org/2000/svg"><title>Page 1</title><g fill="none" fill-rule="evenodd"><path d="M36.732 7.795c.026.022.052.043.077.065m-26.706-.02a20.45 20.45 0 0 1 11.713-4.858l-.006-.028a1.68 1.68 0 1 1 3.315.007l-.004.024a20.448 20.448 0 0 1 11.611 4.81M2.966 21.875A20.451 20.451 0 0 1 7.9 10.031M7.881 36.86a20.45 20.45 0 0 1-4.915-11.817m18.869 18.891a20.45 20.45 0 0 1-11.707-4.84m26.712-.066a20.452 20.452 0 0 1-11.842 4.91m18.888-18.466a20.41 20.41 0 0 1-1.888 6.806 20.57 20.57 0 0 1-2.9 4.477" stroke="#FEFEFE" stroke-width="2"/><path d="M27.783 3.374a20.416 20.416 0 0 1 8.991 4.45l.016-.024a1.68 1.68 0 1 1 2.34 2.35l-.022.013a20.422 20.422 0 0 1 3.353 5.509" stroke="#FEFEFE" stroke-width="2"/><path d="M39.114 10.178c.008.009.015.017.023.026a20.5 20.5 0 0 1 3.854 6.927 20.47 20.47 0 0 1 .849 3.88l.056.38c.014.138.026.276.037.415l.027-.006a1.68 1.68 0 1 1-.007 3.316l-.024-.006a20.431 20.431 0 0 1-1.525 6.267" stroke="#FEFEFE" stroke-width="2"/><path d="M43.535 27.778a20.416 20.416 0 0 1-4.45 8.992l.024.015a1.68 1.68 0 1 1-2.35 2.34l-.013-.022a20.422 20.422 0 0 1-5.509 3.354" stroke="#FEFEFE" stroke-width="2"/><path d="M34.586 40.716a20.417 20.417 0 0 1-9.504 3.212l.006.028a1.68 1.68 0 1 1-3.316-.007l.005-.025a20.413 20.413 0 0 1-6.266-1.524" stroke="#FEFEFE" stroke-width="2"/><path d="M19.12 43.548a20.416 20.416 0 0 1-8.99-4.45l-.016.024a1.68 1.68 0 1 1-2.34-2.35l.021-.013a20.422 20.422 0 0 1-3.353-5.509M3.398 19.099a20.416 20.416 0 0 1 4.449-8.992l-.024-.015a1.68 1.68 0 1 1 2.35-2.34l.013.021a20.422 20.422 0 0 1 5.51-3.353" stroke="#FEFEFE" stroke-width="2"/><path d="M6.194 34.611a20.417 20.417 0 0 1-3.212-9.504l-.028.006a1.68 1.68 0 1 1 .007-3.316l.024.006a20.413 20.413 0 0 1 1.525-6.267" stroke="#FEFEFE" stroke-width="2"/><path d="M39.998 23.455c0 9.282-7.524 16.807-16.807 16.807-9.282 0-16.807-7.525-16.807-16.807 0-9.282 7.525-16.807 16.807-16.807 9.283 0 16.807 7.525 16.807 16.807z" stroke="#FEFEFE" stroke-width="2.255"/><path d="M23.131 13.335v.01l-6.775.08v1.362l6.69-.09v.016h-.412v12.78c-.588 1.221-1.718 1.712-2.818 1.76-.96-.045-1.937-.43-2.56-1.32-.403-.593-.664-1.4-.664-2.491v-.546h-.38v-.003H15.19v.857c0 3.56 2.278 4.818 4.438 4.818 1.109 0 2.243-.339 3.09-1.144v4.15h1.433v-11.41h6.36v-1.8h-6.36v-5.667h7.357v-1.362H23.13z" fill="#FEFEFE"/></g></svg>