<svg id="Layer_1" xmlns="http://www.w3.org/2000/svg" width="979.9" height="109.5" viewBox="0 0 979.9 109.5"><style>.st0{fill:#fff}.st1{fill:none;stroke:#fff;stroke-width:2;stroke-linecap:square;stroke-miterlimit:10}</style><title>JF DRUM TUITION</title><path class="st0" d="M24.5 75.5c-6.5 0-12.1-3.1-16.3-8.8l2.1-3c3.8 5.1 8.8 7.9 14.2 7.9 8.1 0 12.6-5.1 12.6-14.5V16.2H13.9v-3.7h26.9v44.7c0 11.9-5.9 18.3-16.3 18.3zm87.4-63v3.7H77.7v27.2H108v3.8H77.7v28.3H74v-63h37.9zM234.1 44c0 17.5-14.4 31.4-32.4 31.4h-24.9V12.5h25c17.9 0 32.3 13.9 32.3 31.5zm-3.9 0c0-15.5-12.7-27.8-28.5-27.8h-21.1v55.5h21.2c15.7.1 28.4-12.3 28.4-27.7zm74.3 31.5l-14.8-21.3c-1.7.3-3.4.4-5.3.4H266v21h-3.8V12.5h22.2c15.6 0 24.4 7.6 24.4 20.7 0 10.7-5.5 17.7-15.5 20.2l15.7 22h-4.5zm-20.1-24.7c13.1 0 20.6-6.2 20.6-17.5 0-11.1-7.5-17.1-20.6-17.1h-18.5v34.6h18.5zM364 71.9c13.7 0 21.7-8.1 21.7-22.1V12.5h3.8v37.2c0 16.4-9.4 25.8-25.5 25.8s-25.5-9.4-25.5-25.8V12.5h3.8v37.2c0 14.1 8.1 22.2 21.7 22.2zm63.8-59.4L453.1 62l25.1-49.5h5.2v62.9h-3.6l-.1-57.7-25.8 50.8h-1.7l-26-50.8v57.7h-3.6V12.5h5.2zm166.9 0v3.7h-21.2v59.2h-3.8V16.2h-21.2v-3.7h46.2zm48.9 59.4c13.7 0 21.7-8.1 21.7-22.1V12.5h3.8v37.2c0 16.4-9.4 25.8-25.5 25.8s-25.5-9.4-25.5-25.8V12.5h3.8v37.2c0 14.1 8 22.2 21.7 22.2zm62.3-59.4v62.9h-3.8V12.5h3.8zm71.2 0v3.7h-21.2v59.2h-3.8V16.2h-21.2v-3.7h46.2zm28.7 0v62.9H802V12.5h3.8zM899 44c0 17.5-14.6 31.6-32.6 31.6S833.8 61.4 833.8 44c0-17.5 14.6-31.5 32.6-31.5S899 26.5 899 44zm-61.3 0c0 15.4 13 27.9 28.7 27.9s28.7-12.5 28.7-27.9c0-15.4-13-27.8-28.7-27.8-15.7-.1-28.7 12.4-28.7 27.8zm93.7-31.5l42 57.1V12.5h3.7v62.9h-4.4l-41.9-57.1v57.1H927V12.5h4.4z"/><path class="st1" d="M2.5 108.5h970"/></svg>