<svg width="121" height="121" viewBox="0 0 121 121" xmlns="http://www.w3.org/2000/svg"><title>Page 1</title><g fill="none" fill-rule="evenodd"><path d="M95.492 18.968c.068.058.136.116.204.174m-70.624-.052c8.47-7.243 19.195-11.926 30.975-12.85l-.015-.073a4.443 4.443 0 1 1 8.767.017l-.012.066c11.665.942 22.289 5.57 30.705 12.718M6.198 56.203c.91-11.933 5.674-22.788 13.052-31.321m-.053 70.948C11.85 87.306 7.107 76.48 6.2 64.58m49.897 49.956c-11.77-.913-22.487-5.576-30.958-12.797m70.636-.177c-8.538 7.352-19.389 12.093-31.313 12.985m49.948-48.831a53.973 53.973 0 0 1-4.993 17.998 54.396 54.396 0 0 1-7.668 11.837" stroke="#FEFEFE" stroke-width="2"/><path d="M71.825 7.279a53.99 53.99 0 0 1 23.778 11.766l.04-.064a4.444 4.444 0 1 1 6.187 6.212l-.055.037a54.005 54.005 0 0 1 8.867 14.569" stroke="#FEFEFE" stroke-width="2"/><path d="M101.791 25.27c.02.023.04.046.06.07a54.21 54.21 0 0 1 10.193 18.317 54.133 54.133 0 0 1 2.243 10.26l.149 1.005c.036.365.069.732.097 1.098l.073-.016a4.444 4.444 0 1 1-.017 8.768l-.066-.013a54.029 54.029 0 0 1-4.032 16.571" stroke="#FEFEFE" stroke-width="2"/><path d="M113.48 71.813a53.99 53.99 0 0 1-11.765 23.778l.063.04a4.444 4.444 0 1 1-6.212 6.187l-.037-.056a54.005 54.005 0 0 1-14.568 8.868" stroke="#FEFEFE" stroke-width="2"/><path d="M89.816 106.027a53.99 53.99 0 0 1-25.133 8.493l.016.074a4.443 4.443 0 1 1-8.768-.017l.014-.066a53.982 53.982 0 0 1-16.572-4.032" stroke="#FEFEFE" stroke-width="2"/><path d="M48.92 113.515a53.99 53.99 0 0 1-23.779-11.766l-.04.063a4.444 4.444 0 1 1-6.187-6.212l.056-.037a54.005 54.005 0 0 1-8.867-14.568M7.34 48.861a53.99 53.99 0 0 1 11.766-23.778l-.063-.04a4.444 4.444 0 1 1 6.212-6.187l.037.056a54.005 54.005 0 0 1 14.568-8.868" stroke="#FEFEFE" stroke-width="2"/><path d="M14.734 89.883A53.99 53.99 0 0 1 6.24 64.75l-.073.016a4.443 4.443 0 1 1 .017-8.768l.066.014a53.982 53.982 0 0 1 4.032-16.572" stroke="#FEFEFE" stroke-width="2"/><path d="M104.128 60.38c0 24.546-19.898 44.445-44.444 44.445-24.546 0-44.445-19.899-44.445-44.445 0-24.545 19.899-44.445 44.445-44.445s44.444 19.9 44.444 44.445z" stroke="#FEFEFE" stroke-width="2.255"/><path d="M59.525 33.619v.028l-17.917.21v3.603l17.693-.238v.042h-1.092V71.06c-1.554 3.228-4.541 4.525-7.451 4.655-2.54-.12-5.122-1.138-6.769-3.49-1.066-1.57-1.757-3.703-1.757-6.59V64.19h-1.007v-.007h-2.699v2.266c0 9.415 6.025 12.742 11.737 12.742 2.932 0 5.932-.897 8.17-3.026v10.976h3.791V56.967h16.82v-4.759h-16.82V37.222H81.68v-3.603H59.525z" fill="#FEFEFE"/></g></svg>