<svg id="Layer_1" xmlns="http://www.w3.org/2000/svg" width="30" height="30" viewBox="0 0 30 30"><style>.st0{fill:#bca2a2}</style><title>Page 1</title><path class="st0" d="M2 4.5c-.4 0-.6.2-.6.6v19.7c0 .4.3.7.7.7H28c.4 0 .7-.3.7-.7V5.1c0-.4-.3-.7-.7-.7 0 .1-26 .1-26 .1zm26 22.4H2c-1.2 0-2-.9-2-2V5.1c0-1.2.9-2 2-2h26c1.2 0 2 .9 2 2v19.7c0 1.2-.9 2.1-2 2.1z"/><path class="st0" d="M15 17.3c-.7 0-1.4-.3-1.9-.7L.2 4.3l1-1L14 15.6c.5.5 1.4.5 1.9 0L28.8 3.3l1 1-12.9 12.2c-.5.6-1.2.8-1.9.8"/><path class="st0" d="M12.5 14.9l.9 1L1.1 26.8l-.9-1s12.3-10.9 12.3-10.9zm5 0l12.3 10.9-.9 1-12.3-10.9s.9-1 .9-1z"/></svg>