<svg id="Layer_1" xmlns="http://www.w3.org/2000/svg" width="30" height="30" viewBox="0 0 30 30"><style>.st0{fill:#888}</style><title>Page 1</title><path class="st0" d="M29.5 6.7c-1 .4-2.1.7-3.3.8 1.1-.7 2.1-1.8 2.5-3.2-1.1.7-2.3 1.1-3.6 1.4-1-1.1-2.5-1.8-4.1-1.8-3.2 0-5.6 2.5-5.6 5.6 0 .4 0 .8.1 1.2-4.7-.3-8.8-2.5-11.6-5.9-.6.9-.8 1.9-.8 3 0 1.9 1 3.7 2.5 4.7-1 0-1.8-.3-2.6-.7 0 0 0 0 0 .1 0 2.8 1.9 5 4.5 5.5-.4.1-1 .1-1.5.1-.4 0-.7 0-1.1-.1.7 2.2 2.8 3.9 5.2 3.9-1.9 1.5-4.4 2.5-7 2.5-.4 0-1 0-1.4-.1 2.5 1.7 5.5 2.5 8.7 2.5 10.3 0 16-8.5 16-16 0-.3 0-.6 0-.7 1.3-.6 2.2-1.7 3.1-2.8z"/></svg>