<svg id="Layer_1" xmlns="http://www.w3.org/2000/svg" width="30" height="30" viewBox="0 0 30 30"><style>.st0{fill:#bca2a2}</style><title>Page 1</title><path class="st0" d="M12.8 12.5v7.8l5.9-3.8c0-.1-5.9-4-5.9-4zm-.6 9.6c-.1 0-.2 0-.3-.1-.2-.1-.3-.3-.3-.5V11.3c0-.3.1-.5.3-.6.2-.1.5-.1.7 0l7.8 5.2c.2.1.3.3.3.5s-.1.4-.3.5l-7.7 5c-.3.2-.4.2-.5.2zM5.4 7.3C3.5 7.3 2 8.8 2 10.7v10.8c0 1.9 1.5 3.4 3.3 3.4h18.9c1.9 0 3.4-1.5 3.4-3.3V10.7c0-1.9-1.5-3.4-3.3-3.4 0 0-18.9 0-18.9 0zm18.9 19H5.4c-2.6 0-4.7-2.1-4.7-4.7V10.8C.7 8.1 2.8 6 5.4 6h18.9C27 6 29 8.1 29 10.8v10.8c0 2.6-2 4.7-4.7 4.7z"/></svg>